<svg width="500" height="500" viewBox="0 0 500 500" fill="none" xmlns="http://www.w3.org/2000/svg">
<circle cx="250" cy="250" r="225" stroke="black" stroke-width="10"/>
<line x1="110" y1="250" x2="391" y2="250" stroke="black" stroke-width="10"/>
<line x1="250" y1="110" x2="250" y2="390" stroke="black" stroke-width="10"/>
<line x1="150.536" y1="150.464" x2="349.536" y2="349.464" stroke="black" stroke-width="10"/>
<line x1="150.464" y1="349.464" x2="349.464" y2="150.464" stroke="black" stroke-width="10"/>
<circle cx="90.4048" cy="250.405" r="25.4048" transform="rotate(90 90.4048 250.405)" fill="black" stroke="black" stroke-width="10"/>
<circle cx="137.268" cy="137.268" r="25.4048" transform="rotate(135 137.268 137.268)" fill="black" stroke="black" stroke-width="10"/>
<circle cx="250.405" cy="90.4048" r="25.4048" transform="rotate(180 250.405 90.4048)" fill="black" stroke="black" stroke-width="10"/>
<circle cx="363.542" cy="137.268" r="25.4048" transform="rotate(-135 363.542 137.268)" fill="black" stroke="black" stroke-width="10"/>
<circle cx="410.405" cy="250.405" r="25.4048" transform="rotate(-90 410.405 250.405)" fill="black" stroke="black" stroke-width="10"/>
<circle cx="363.542" cy="363.542" r="25.4048" transform="rotate(-45 363.542 363.542)" fill="black" stroke="black" stroke-width="10"/>
<circle cx="250.405" cy="410.405" r="25.4048" fill="black" stroke="black" stroke-width="10"/>
<circle cx="137.268" cy="363.542" r="25.4048" transform="rotate(45 137.268 363.542)" fill="black" stroke="black" stroke-width="10"/>
<path fill-rule="evenodd" clip-rule="evenodd" d="M417.9 63.3137C412.042 57.4558 402.544 57.4558 396.686 63.3137L252.9 207.1C247.042 212.958 237.544 212.958 231.686 207.1L198.9 174.314C193.042 168.456 183.544 168.456 177.686 174.314L154.314 197.686C148.456 203.544 148.456 213.042 154.314 218.899L239.393 303.979C245.251 309.837 254.749 309.837 260.607 303.979L448.979 115.607C454.837 109.749 454.837 100.251 448.979 94.3933L417.9 63.3137ZM417.9 61.8994C412.042 56.0416 402.544 56.0416 396.686 61.8994L252.9 205.686C247.042 211.544 237.544 211.544 231.686 205.686L198.9 172.899C193.042 167.042 183.544 167.042 177.686 172.899L152.9 197.686C147.042 203.544 147.042 213.042 152.9 218.899L239.393 305.393C245.251 311.251 254.749 311.251 260.607 305.393L450.393 115.606C456.251 109.749 456.251 100.251 450.393 94.3933L417.9 61.8994Z" fill="black"/>
<path d="M177.686 174.314C183.544 168.456 193.042 168.456 198.9 174.314L231.686 207.1C237.544 212.958 247.042 212.958 252.9 207.1L396.686 63.3137C402.544 57.4558 412.042 57.4558 417.9 63.3137L448.979 94.3933C454.837 100.251 454.837 109.749 448.979 115.607L260.607 303.979C254.749 309.837 245.251 309.837 239.393 303.979L154.314 218.899C148.456 213.042 148.456 203.544 154.314 197.686L177.686 174.314Z" fill="black"/>
<path fill-rule="evenodd" clip-rule="evenodd" d="M417.9 63.3137C412.042 57.4558 402.544 57.4558 396.686 63.3137L252.9 207.1C247.042 212.958 237.544 212.958 231.686 207.1L198.9 174.314C193.042 168.456 183.544 168.456 177.686 174.314L154.314 197.686C148.456 203.544 148.456 213.042 154.314 218.899L239.393 303.979C245.251 309.837 254.749 309.837 260.607 303.979L448.979 115.607C454.837 109.749 454.837 100.251 448.979 94.3933L417.9 63.3137ZM417.9 61.8994C412.042 56.0416 402.544 56.0416 396.686 61.8994L252.9 205.686C247.042 211.544 237.544 211.544 231.686 205.686L198.9 172.899C193.042 167.042 183.544 167.042 177.686 172.899L152.9 197.686C147.042 203.544 147.042 213.042 152.9 218.899L239.393 305.393C245.251 311.251 254.749 311.251 260.607 305.393L450.393 115.606C456.251 109.749 456.251 100.251 450.393 94.3933L417.9 61.8994Z" stroke="black" stroke-width="10"/>
<path d="M177.686 174.314C183.544 168.456 193.042 168.456 198.9 174.314L231.686 207.1C237.544 212.958 247.042 212.958 252.9 207.1L396.686 63.3137C402.544 57.4558 412.042 57.4558 417.9 63.3137L448.979 94.3933C454.837 100.251 454.837 109.749 448.979 115.607L260.607 303.979C254.749 309.837 245.251 309.837 239.393 303.979L154.314 218.899C148.456 213.042 148.456 203.544 154.314 197.686L177.686 174.314Z" stroke="black" stroke-width="10"/>
</svg>
